<svg xmlns="http://www.w3.org/2000/svg" width="323.013" height="292" viewBox="0 0 323.013 292"><g transform="translate(-526 -459)"><rect width="50" height="78" transform="translate(526 566)" fill="#fff"/><path d="M146,0,292,184.052H0Z" transform="translate(526 751) rotate(-90)" fill="#fff"/><path d="M0,178a9.971,9.971,0,0,1-7.073-2.931,10,10,0,0,1,0-14.139c.4-.4,39.551-40.046,39.551-77.33C32.481,46.375-6.608,7.527-7,7.139A10,10,0,0,1-7.135-7,10,10,0,0,1,7-7.145C8.854-5.326,52.481,37.92,52.481,83.6c0,45.623-43.562,89.628-45.416,91.479A9.962,9.962,0,0,1,0,178Z" transform="translate(756.74 521)" fill="#fff"/><path d="M0,107.929a9.967,9.967,0,0,1-6.553-2.449,10.007,10.007,0,0,1-1.005-14.1c.191-.22,19.067-22.282,19.067-42.646C11.514,28.426-7.3,6.84-7.491,6.624A10.007,10.007,0,0,1-6.618-7.485a9.993,9.993,0,0,1,14.1.849C8.462-5.53,31.514,20.774,31.514,48.732c0,27.9-22.992,54.641-23.971,55.765A9.964,9.964,0,0,1,0,107.929Z" transform="translate(732.467 556.034)" fill="#fff"/><path d="M0,247a9.972,9.972,0,0,1-7.149-3.007,10,10,0,0,1,.151-14.139c.58-.569,58.026-57.48,58.026-111.754,0-54.232-57.4-110.344-57.978-110.9A10,10,0,0,1-7.192-6.944,10,10,0,0,1,6.941-7.2c2.617,2.523,64.091,62.52,64.091,125.3,0,62.738-61.427,123.5-64.042,126.053A9.963,9.963,0,0,1,0,247Z" transform="translate(777.981 486.5)" fill="#fff"/></g></svg>